# xmcd
#
# Track frame offsets:
#	150
#	17322
#	37454
#	57705
#	81449
#	102173
#	130476
#	156766
#	183767
#	204018
#	229834
#	255413
#	279690
#
# Disc length: 4054 seconds
#
# Revision: 1
# Processed by: cddbd v1.5.2PL0 Copyright (c) Steve Scherf et al.
# Submitted via: EZCDAudioConverter 2.2.0.1
#
DISCID=b00fd40d
DTITLE=Douglass Band
DYEAR=2014
DGENRE=Hard-Blues
TTITLE0=Killer Guitar
TTITLE1=Wheels on Fire
TTITLE2=Cold Beer
TTITLE3=Freedom
TTITLE4=Bad Room
TTITLE5=On the road
TTITLE6=Power
TTITLE7=Doom
TTITLE8=Miles Away
TTITLE9=Waiting Ronight
TTITLE10=Angel
TTITLE11=Alligator
TTITLE12=Rock and Roll
EXTD=
EXTT0=
EXTT1=
EXTT2=
EXTT3=
EXTT4=
EXTT5=
EXTT6=
EXTT7=
EXTT8=
EXTT9=
EXTT10=
EXTT11=
EXTT12=
PLAYORDER=
